
<svg xmlns="http://www.w3.org/2000/svg" version="1.1" xmlns:xlink="http://www.w3.org/1999/xlink" preserveAspectRatio="none" x="0px" y="0px" width="210px" height="80px" viewBox="0 0 210 80">
<defs>
<g id="Layer0_0_MEMBER_0_MEMBER_0_MEMBER_0_FILL">
<path fill="#CCDC3C" stroke="none" d="
M 118.05 197.05
L 129.95 150.2 75.95 145.25 118.05 197.05 Z"/>

<path fill="#8DC44A" stroke="none" d="
M 68.1 186.1
L 67.1 184.2 36 125.9 31.9 206.4 68.1 186.1 Z"/>

<path fill="#5BE6CF" stroke="none" d="
M 68.15 186.1
L 69.1 188.2 89.35 231.05 118.05 197.05 68.15 186.1 Z"/>

<path fill="#4BA2F2" stroke="none" d="
M 69.1 188.2
L 68.1 186.1 31.9 206.4 89.35 231.05 69.1 188.2 Z"/>

<path fill="#67CF71" stroke="none" d="
M 68.6 183.45
Q 68.56484375 183.794140625 68.5 184.1
L 68.1 186 68.1 186.1 68.15 186.1 118.05 197.05 75.95 145.25
Q 72.2908203125 164.36484375 68.6 183.45 Z"/>

<path fill="#CAE769" stroke="none" d="
M 68.5 184.1
Q 68.56484375 183.794140625 68.6 183.45 72.2908203125 164.36484375 75.95 145.25
L 36 125.9 67.1 184.2 68.1 186 68.5 184.1 Z"/>
</g>

<g id="Layer0_0_MEMBER_0_MEMBER_0_MEMBER_1_FILL">
<path fill="#333333" stroke="none" d="
M 270.35 123
L 270.35 120.05 263.15 120.05 263.15 113.25 259.8 113.25 259.8 120.05 256.65 120.05 256.65 123 259.8 123 259.8 136.65
Q 259.8 138.35 260.25 139.6 260.75 140.8 261.6 141.6 262.45 142.35 263.65 142.7 264.8 143.05 266.15 143.05 267.8 143.05 270.25 142.05
L 270.25 139.2
Q 268.6 140 266.95 140 265.15 140 264.2 139.15 263.15 138.2 263.15 136.2
L 263.15 123 270.35 123
M 293.5 123.05
Q 292.1 121.4 290.2 120.5 287.4 119.55 285.7 119.55 283.4 119.55 281.4 120.5 279.4 121.35 277.95 123 276.45 124.65 275.7 126.75 274.85 128.95 274.85 131.4
L 275.1 133.9 275.75 136.2
Q 276.6 138.3 278.2 139.9 279.7 141.5 281.75 142.35 283.85 143.2 286.15 143.2 287.7 143.2 289.1 142.85 290.4 142.6 291.55 142 293.05 141.25 295.45 138.95
L 293.35 137.05
Q 291.9 138.6 290.25 139.35 288.45 140.25 286.25 140.25 284.75 140.25 283.35 139.75 282 139.25 280.95 138.25 279.8 137.25 279.15 135.85 278.45 134.4 278.25 132.6
L 296.2 132.6 296.25 131.55
Q 296.25 129.05 295.55 126.85 294.85 124.65 293.5 123.05
M 285.6 122.4
Q 287.25 122.4 288.6 123.05 289.85 123.6 290.8 124.7 291.65 125.75 292.2 127.15 292.7 128.5 292.85 130.1
L 278.25 130.1
Q 278.45 128.45 279.05 127.05 279.65 125.65 280.65 124.6 281.6 123.55 282.9 123 284.15 122.4 285.6 122.4
M 203.9 137.95
Q 204.7 136.35 204.7 134.4 204.7 132.6 204.1 131.25 203.5 129.85 202.25 128.8 201.05 127.8 199.15 127 197.3 126.25 194.7 125.7 192.2 125.15 190.55 124.55 188.95 123.95 188.05 123.25 187.15 122.55 186.75 121.65 186.4 120.85 186.4 119.7 186.4 118.65 186.85 117.75 187.3 116.85 188.15 116.15 189.05 115.45 190.2 115.1 191.45 114.7 192.9 114.7 195.3 114.7 197.45 115.5 199.65 116.35 201.75 118.05
L 203.75 115.35
Q 200.6 113.2 198.9 112.55 197.55 112.1 196.1 111.85
L 193 111.6
Q 190.85 111.6 188.95 112.25 187.15 112.85 185.8 114 184.4 115.1 183.7 116.6 182.95 118.2 182.95 120 182.95 121.9 183.55 123.3 184.15 124.7 185.45 125.75 186.7 126.8 188.65 127.55 190.5 128.3 193.2 128.9 195.6 129.4 197.15 129.95 198.7 130.5 199.6 131.25 200.45 131.9 200.85 132.8 201.2 133.6 201.2 134.75 201.2 135.9 200.7 136.85 200.2 137.8 199.3 138.55 198.4 139.25 197.15 139.6 195.9 140 194.35 140 192.75 140 191.4 139.7 190 139.45 188.7 138.9 187.45 138.4 186.25 137.55
L 183.85 135.65 181.75 138.2
Q 183.1 139.45 184.55 140.35 186 141.25 187.55 141.85 189.05 142.5 190.75 142.8 192.4 143.1 194.2 143.1 196.5 143.1 198.4 142.5 200.3 141.85 201.75 140.75 203.15 139.6 203.9 137.95
M 231.6 120.05
L 228 120.05 220.75 138.9 212.5 120.05 208.8 120.05 219.05 142.55
Q 218.05 144.9 217 145.85 215.95 146.8 214.45 146.8 212.5 146.8 210.9 146
L 209.75 148.65
Q 210.95 149.25 212 149.5 213.2 149.8 214.55 149.8 215.85 149.8 216.9 149.45 218 149.1 218.85 148.35 219.8 147.6 220.6 146.35 221.35 145.15 222.05 143.4
L 231.6 120.05
M 238.3 121.45
Q 237.25 122.3 236.7 123.5 236.1 124.7 236.1 126.15
L 236.1 126.2
Q 236.1 127.7 236.8 128.8 237.4 129.8 238.55 130.6 239.95 131.55 243.6 132.6 246.4 133.35 247.55 134.05 248.35 134.5 248.8 135.1 249.25 135.75 249.25 136.55
L 249.25 136.65
Q 249.25 138.25 247.9 139.3 246.6 140.25 244.55 140.25 242.6 140.25 240.55 139.5 238.6 138.75 236.75 137.35
L 235.05 139.75
Q 236.95 141.3 239.45 142.2 241.95 143.1 244.4 143.1 246.1 143.1 247.55 142.65 249 142.2 250.1 141.3 251.2 140.4 251.8 139.15 252.45 137.9 252.45 136.3
L 252.45 136.2
Q 252.45 134.75 251.8 133.65 251.2 132.65 250.1 131.85 249.2 131.2 247.75 130.65
L 245.15 129.75
Q 242.2 128.85 241.15 128.25 240.3 127.8 239.85 127.25 239.35 126.6 239.35 125.85
L 239.35 125.75
Q 239.35 124.35 240.55 123.45 241.75 122.5 243.75 122.5 245.35 122.5 247.1 123.05 248.8 123.65 250.4 124.65
L 251.95 122.15
Q 250.2 121 248.05 120.3 245.85 119.65 243.85 119.65 242.15 119.65 240.75 120.1 239.35 120.55 238.3 121.45
M 327.95 119.55
Q 326.5 119.55 325.25 119.9 324.1 120.25 323.1 120.85 322.15 121.45 321.35 122.3
L 320 124.1
Q 319.5 123.1 318.85 122.3 318.15 121.45 317.3 120.85 316.35 120.25 315.25 119.9 314.1 119.55 312.75 119.55 311.35 119.55 310.2 119.9 309.1 120.25 308.2 120.85 306.75 121.85 305.45 123.85
L 305.45 120.05 302.05 120.05 302.05 142.65 305.45 142.65 305.45 129.75
Q 305.45 128.2 305.9 126.9 306.35 125.6 307.2 124.65 308.1 123.65 309.25 123.15 310.4 122.6 311.75 122.6 313.05 122.6 314.15 123.05 315.2 123.5 316 124.4 316.75 125.25 317.15 126.5 317.55 127.8 317.55 129.35
L 317.55 142.65 320.85 142.65 320.85 129.65
Q 320.85 128 321.35 126.65 321.85 125.4 322.7 124.45 323.55 123.55 324.7 123.1 325.8 122.6 327.1 122.6 328.5 122.6 329.6 123.05 330.65 123.5 331.4 124.4 332.2 125.25 332.55 126.55 332.95 127.8 332.95 129.45
L 332.95 142.65 336.35 142.65 336.35 128.65
Q 336.35 126.55 335.75 124.85 335.2 123.2 334.1 122 333 120.85 331.45 120.2 329.9 119.55 327.95 119.55 Z"/>

<path fill="#00CC66" stroke="none" d="
M 189.15 57.45
L 184.15 57.45 184.15 104.55 189.3 104.55 189.3 65.9 219.75 104.55 224 104.55 224 57.45 218.8 57.45 218.8 95.2 189.15 57.45
M 257.85 70.5
Q 253.55 69.05 250.95 69.05 247.45 69.05 244.3 70.45 241.3 71.8 239.05 74.35 236.75 76.85 235.55 80.1 234.3 83.45 234.3 87.2
L 234.6 91.1 235.65 94.6
Q 236.95 97.9 239.4 100.35 241.75 102.75 244.9 104.05 248.1 105.35 251.65 105.35 254.05 105.35 256.15 104.9 258.2 104.45 259.95 103.55 262.3 102.4 265.95 98.85
L 262.75 95.95
Q 260.45 98.3 258 99.5 255.2 100.85 251.75 100.85 249.45 100.85 247.35 100.1 245.25 99.3 243.6 97.8 241.9 96.25 240.9 94.1 239.8 91.85 239.5 89.1
L 267.1 89.1 267.15 87.45
Q 267.15 83.65 266.1 80.3 265 76.9 262.95 74.45 260.8 71.85 257.85 70.5
M 260.95 80.75
Q 261.7 82.8 261.9 85.25
L 239.5 85.25
Q 239.8 82.7 240.75 80.55 241.65 78.35 243.15 76.75 244.7 75.15 246.6 74.3 248.6 73.4 250.8 73.4 253.35 73.4 255.4 74.35 257.35 75.25 258.75 76.95 260.15 78.55 260.95 80.75
M 278.75 69.75
L 273.2 69.75 285.4 104.8 290 104.8 299.4 77.4 308.75 104.8 313.25 104.8 325.5 69.75 320.1 69.75 310.95 97.7 301.55 69.65 297.25 69.65 287.85 97.7 278.75 69.75 Z"/>

<path fill="#01A8E2" stroke="none" d="
M 351.2 57.15
Q 348.7 57.65 346.4 58.55 344.2 59.5 342.25 60.85 340.3 62.15 338.65 63.8 337.05 65.45 335.75 67.45 334.5 69.35 333.6 71.55 332.7 73.75 332.3 76.1 331.85 78.5 331.85 81
L 331.85 81.15
Q 331.85 83.65 332.3 86.05 332.75 88.4 333.65 90.6 334.5 92.8 335.8 94.75 337.1 96.65 338.7 98.3 340.3 99.95 342.25 101.25 344.2 102.6 346.35 103.45 348.55 104.4 350.95 104.9 353.4 105.35 355.95 105.35 359.3 105.35 362.15 104.8 364.85 104.2 367.2 103.1 369.45 102.05 371.5 100.45 373.35 99 375.3 96.95
L 368.7 90.3
Q 365.6 93.1 363.15 94.3 359 95.8 356.3 95.8 353.35 95.8 350.75 94.65 348.3 93.5 346.45 91.45 344.65 89.4 343.65 86.7 342.65 84 342.65 81
L 342.65 80.85
Q 342.65 77.9 343.65 75.2 344.65 72.55 346.5 70.5 348.35 68.5 350.8 67.35 353.4 66.2 356.3 66.2 359.7 66.2 362.75 67.65 365.45 68.9 368.35 71.5
L 374.9 63.9
Q 370.35 59.95 367.35 58.65 365.05 57.7 362.4 57.2 359.6 56.65 356.35 56.65 353.7 56.65 351.2 57.15
M 414.2 73.25
Q 410.4 70.25 408.05 69.25 403.1 67.85 400.3 67.85
L 396.25 68.2 392.5 69.3
Q 388.05 71.65 386.3 73.3 383.65 75.9 382.2 79.3 380.7 84 380.7 86.6
L 380.7 86.7 381.1 90.5 382.2 94
Q 383.6 97.35 386.25 99.9 388 101.6 392.4 103.9
L 396.15 105 400.15 105.35
Q 402.95 105.35 407.95 103.9 410.3 102.95 414.15 99.85 416.8 97.3 418.25 93.9
L 419.35 90.35 419.75 86.6 419.75 86.45
Q 419.75 83.85 418.25 79.15 416.85 75.8 414.2 73.25
M 407.05 79.6
Q 408.3 81 408.95 82.8 409.65 84.6 409.65 86.6
L 409.65 86.7
Q 409.65 88.7 409 90.5 408.4 92.3 407.15 93.6 405.9 95 404.25 95.75 402.45 96.55 400.3 96.55 398.25 96.55 396.45 95.75 394.7 94.95 393.45 93.55 392.2 92.2 391.5 90.4 390.8 88.6 390.8 86.6
L 390.8 86.45
Q 390.8 84.45 391.45 82.65 392.1 80.9 393.3 79.55 394.55 78.15 396.25 77.4 398.05 76.65 400.15 76.65 402.25 76.65 404.05 77.45 405.75 78.2 407.05 79.6
M 444.8 68.25
Q 443.05 68.75 441.6 69.85 440.25 70.85 439.15 72.4 438.15 73.8 437.35 75.75
L 437.35 68.5 427.1 68.5 427.1 104.55 437.35 104.55 437.35 91.25
Q 437.35 88.05 438.1 85.6 438.85 83.25 440.3 81.65 441.7 80.1 443.75 79.3 445.75 78.5 448.3 78.5
L 448.85 78.5 448.85 67.85
Q 446.65 67.75 444.8 68.25
M 488.65 90.1
L 488.8 87.4
Q 488.8 83.45 487.75 80 486.65 76.45 484.55 73.75 483.45 72.4 482.1 71.3 480.7 70.2 479.1 69.45 477.35 68.65 475.45 68.25 473.45 67.85 471.25 67.85 469.3 67.85 467.5 68.2
L 464.05 69.3
Q 460.8 70.7 458.4 73.35 456 75.9 454.75 79.3 453.4 82.75 453.4 86.6
L 453.4 86.7 453.8 90.7 454.85 94.3
Q 456.2 97.7 458.8 100.2 461.35 102.7 464.75 104 467 104.9 472.25 105.35 474.7 105.35 476.85 104.9 478.95 104.45 480.8 103.55 482.6 102.7 484.2 101.45 485.7 100.2 487 98.65
L 481.15 93.45
Q 479 95.4 477 96.25 474.95 97.15 472.4 97.15 470.65 97.15 469.2 96.7 467.8 96.25 466.65 95.35 465.5 94.45 464.75 93.15 463.95 91.8 463.55 90.1
L 488.65 90.1
M 463.45 83.7
Q 463.75 81.95 464.45 80.55 465.1 79.15 466.05 78.1 467.05 77.1 468.35 76.55 469.7 76.05 471.25 76.05 472.85 76.05 474.2 76.6 475.45 77.1 476.45 78.15 477.4 79.15 478.05 80.55 478.6 82 478.85 83.7
L 463.45 83.7 Z"/>
</g>
</defs>

<g transform="matrix( 0.715972900390625, 0, 0, 0.715972900390625, -21.65,-88.6) ">
<use xlink:href="#Layer0_0_MEMBER_0_MEMBER_0_MEMBER_0_FILL"/>
</g>

<g transform="matrix( 0.42578125, 0, 0, 0.42578125, -2.75,-1.45) ">
<use xlink:href="#Layer0_0_MEMBER_0_MEMBER_0_MEMBER_1_FILL"/>
</g>
</svg>
