<svg xmlns="http://www.w3.org/2000/svg" xmlns:xlink="http://www.w3.org/1999/xlink" viewBox="415 180 1468 433"><defs><style>.a,.g{fill:#fff;}.a{stroke:#cbcfd3;}.b{fill:#d5d9dc;}.c,.d{fill:#7c7c7c;}.c{font-size:26px;}.c,.g,.i{font-family:HelveticaNeue-Bold, Helvetica Neue;font-weight:700;}.d,.g{font-size:20px;}.d,.l{font-family:HelveticaNeue, Helvetica Neue;}.e{fill:#b7ce03;}.f{fill:#6197f5;}.h,.o{fill:none;}.h{stroke:#cbd3d8;stroke-width:0.5px;}.i{font-size:40px;}.j{fill:#76db00;}.k{fill:#00db54;}.l{fill:#646565;font-size:30px;}.m{fill:#5488e9;font-size:36px;font-family:HelveticaNeue-Medium, Helvetica Neue;font-weight:500;}.n{stroke:none;}.p{filter:url(#e);}.q{filter:url(#c);}.r{filter:url(#a);}</style><filter id="a" x="415" y="291" width="460" height="322" filterUnits="userSpaceOnUse"><feOffset dy="1" input="SourceAlpha"/><feGaussianBlur stdDeviation="3" result="b"/><feFlood flood-opacity="0.059"/><feComposite operator="in" in2="b"/><feComposite in="SourceGraphic"/></filter><filter id="c" x="919" y="291" width="460" height="322" filterUnits="userSpaceOnUse"><feOffset dy="1" input="SourceAlpha"/><feGaussianBlur stdDeviation="3" result="d"/><feFlood flood-opacity="0.059"/><feComposite operator="in" in2="d"/><feComposite in="SourceGraphic"/></filter><filter id="e" x="1423" y="291" width="460" height="322" filterUnits="userSpaceOnUse"><feOffset dy="1" input="SourceAlpha"/><feGaussianBlur stdDeviation="3" result="f"/><feFlood flood-opacity="0.059"/><feComposite operator="in" in2="f"/><feComposite in="SourceGraphic"/></filter></defs><g class="r" transform="matrix(1, 0, 0, 1, 0, 0)"><g class="a" transform="translate(424 299)"><rect class="n" width="442" height="304"/><rect class="o" x="0.5" y="0.5" width="441" height="303"/></g></g><rect class="b" width="440.021" height="15.131" transform="translate(424.997 586.873)"/><text class="c" transform="translate(799 563)"><tspan x="0" y="0">244</tspan></text><text class="d" transform="translate(767 533)"><tspan x="0" y="0">TARGET</tspan></text><rect class="e" width="206.554" height="15.131" transform="translate(424.997 586.873)"/><rect class="f" width="442" height="66" transform="translate(424 299)"/><text class="g" transform="translate(500 340)"><tspan x="0" y="0">PENAMBAHAN PERUSAHAAN</tspan></text><line class="h" x2="442" transform="translate(424.5 498.5)"/><text class="d" transform="translate(454 533)"><tspan x="0" y="0">PERUSAHAAN AKTIF</tspan></text><g class="q" transform="matrix(1, 0, 0, 1, 0, 0)"><g class="a" transform="translate(928 299)"><rect class="n" width="442" height="304"/><rect class="o" x="0.5" y="0.5" width="441" height="303"/></g></g><rect class="b" width="440.021" height="15.131" transform="translate(928.997 586.873)"/><text class="i" transform="translate(958 437)"><tspan x="0" y="0">2.520</tspan></text><text class="c" transform="translate(1281 563)"><tspan x="0" y="0">2.343</tspan></text><text class="d" transform="translate(1271 533)"><tspan x="0" y="0">TARGET</tspan></text><text class="d" transform="translate(958 460)"><tspan x="0" y="0">70% dari target</tspan></text><rect class="j" width="321.554" height="15.131" transform="translate(928.997 586.873)"/><rect class="f" width="442" height="66" transform="translate(928 299)"/><text class="g" transform="translate(1004 340)"><tspan x="0" y="0">PENAMBAHAN TENAGA KERJA</tspan></text><line class="h" x2="442" transform="translate(928.5 496.5)"/><text class="c" transform="translate(958 565)"><tspan x="0" y="0">20.343.344</tspan></text><text class="d" transform="translate(958 533)"><tspan x="0" y="0">TK AKTIF</tspan></text><g class="p" transform="matrix(1, 0, 0, 1, 0, 0)"><g class="a" transform="translate(1432 299)"><rect class="n" width="442" height="304"/><rect class="o" x="0.5" y="0.5" width="441" height="303"/></g></g><rect class="b" width="440.021" height="15.131" transform="translate(1432.997 586.873)"/><text class="i" transform="translate(1457 437)"><tspan x="0" y="0">1.455.345.234.221</tspan></text><text class="c" transform="translate(1633 563)"><tspan x="0" y="0">2.000.000.000.000</tspan></text><text class="d" transform="translate(1775 533)"><tspan x="0" y="0">TARGET</tspan></text><text class="d" transform="translate(1462 462)"><tspan x="0" y="0">90% dari target</tspan></text><rect class="k" width="407.554" height="15.131" transform="translate(1432.997 586.873)"/><rect class="f" width="442" height="66" transform="translate(1432 299)"/><text class="g" transform="translate(1547 340)"><tspan x="0" y="0">PENAMBAHAN IURAN</tspan></text><line class="h" x2="442" transform="translate(1432.5 496.5)"/><text class="l" transform="translate(856 209)"><tspan x="0" y="0">DASHBOARD KEPESERTAAN TAHUN 2018</tspan></text><text class="m" transform="translate(954 254)"><tspan x="0" y="0">KACAB JAKARTA SLIPI</tspan></text><path class="k" d="M686.282,745.726l8.173-10.959,8.173,10.959Z" transform="translate(378 -317.408)"/><path class="k" d="M686.282,745.726l8.173-10.959,8.173,10.959Z" transform="translate(1112 -316.408)"/></svg>